<svg width="126" height="123" viewBox="0 0 126 123" fill="none" xmlns="http://www.w3.org/2000/svg">
<path d="M14.2855 35.2385C42.1351 13.7035 63.7497 -13.5217 44.0472 22.6326C24.3446 58.787 -21.2123 97.8302 25.0928 62.9014C73.7257 26.3094 102.24 -16.8483 69.4859 35.2385C36.7314 87.3253 -6.08208 123.129 44.0472 89.3387C94.1764 55.548 118.202 20.1815 89.6041 62.9014C61.0063 105.621 29.0001 125.143 61.422 110.874C93.8439 96.6046 136.325 40.1408 115.459 72.2683C94.5921 104.396 66.0774 125.931 89.6041 110.874C113.131 95.8168 121.943 88.4633 110.387 101.507C98.8319 114.551 92.3475 123.129 103.903 114.55" stroke="url(#paint0_linear_10_30)" stroke-width="10" stroke-linecap="round"/>
<defs>
<linearGradient id="paint0_linear_10_30" x1="48.8718" y1="-21.0197" x2="26.2024" y2="166.324" gradientUnits="userSpaceOnUse">
<stop stop-color="#FFE500" stop-opacity="0.7"/>
<stop offset="1" stop-color="#FF0000" stop-opacity="0.56"/>
</linearGradient>
</defs>
</svg>
