<svg width="126" height="152" viewBox="0 0 126 152" fill="none" xmlns="http://www.w3.org/2000/svg">
<path d="M14.2855 42.9989C42.1351 15.9371 63.7497 -18.2751 44.0472 27.1578C24.3446 72.5907 -21.2123 121.654 25.0928 77.7611C73.7257 31.7781 102.24 -22.4553 69.4859 42.9989C36.7314 108.453 -6.08209 153.446 44.0472 110.983C94.1764 68.5205 118.202 24.0776 89.6041 77.7611C61.0063 131.445 29.0001 155.976 61.422 138.045C93.8439 120.114 136.325 49.1592 115.459 89.5318C94.5921 129.904 66.0774 156.966 89.6041 138.045C113.131 119.124 121.943 109.883 110.387 126.274C98.8319 142.665 92.3475 153.446 103.903 142.665" stroke="url(#paint0_linear_10_29)" stroke-width="10" stroke-linecap="round"/>
<defs>
<linearGradient id="paint0_linear_10_29" x1="63.3742" y1="191.979" x2="120.282" y2="-52.4133" gradientUnits="userSpaceOnUse">
<stop stop-color="#FFE500" stop-opacity="0.7"/>
<stop offset="1" stop-color="#FF0000" stop-opacity="0.56"/>
</linearGradient>
</defs>
</svg>
